<svg xmlns="http://www.w3.org/2000/svg" xmlns:xlink="http://www.w3.org/1999/xlink" width="318" zoomAndPan="magnify" viewBox="0 0 238.5 238.499992" height="318" preserveAspectRatio="xMidYMid meet" version="1.0"><defs><clipPath id="62177afda0"><path d="M 108.695312 96.828125 L 142 96.828125 L 142 130 L 108.695312 130 Z M 108.695312 96.828125 " clip-rule="nonzero"/></clipPath><clipPath id="0d6e935846"><path d="M 130.621094 96.824219 C 119.414062 96.824219 120.117188 101.710938 120.117188 101.710938 L 120.128906 106.773438 L 130.820312 106.773438 L 130.820312 108.292969 L 115.882812 108.292969 C 115.882812 108.292969 108.710938 107.476562 108.710938 118.84375 C 108.710938 130.210938 114.96875 129.808594 114.96875 129.808594 L 118.703125 129.808594 L 118.703125 124.53125 C 118.703125 124.53125 118.503906 118.238281 124.863281 118.238281 L 135.464844 118.238281 C 135.464844 118.238281 141.421875 118.335938 141.421875 112.449219 L 141.421875 102.714844 C 141.421875 102.714844 142.328125 96.824219 130.621094 96.824219 Z M 124.722656 100.230469 C 125.789062 100.230469 126.648438 101.09375 126.648438 102.164062 C 126.648438 103.234375 125.789062 104.097656 124.722656 104.097656 C 123.660156 104.097656 122.800781 103.234375 122.800781 102.164062 C 122.800781 101.09375 123.660156 100.230469 124.722656 100.230469 Z M 124.722656 100.230469 " clip-rule="nonzero"/></clipPath><linearGradient x1="0.00416839" gradientTransform="matrix(32.727351, 0, 0, 32.984811, 108.711958, 96.824946)" y1="-0.00405726" x2="1.027757" gradientUnits="userSpaceOnUse" y2="1.01158" id="b3c105c5e3"><stop stop-opacity="1" stop-color="rgb(21.998596%, 49.398804%, 72.198486%)" offset="0"/><stop stop-opacity="1" stop-color="rgb(21.99707%, 49.383545%, 72.171021%)" offset="0.125"/><stop stop-opacity="1" stop-color="rgb(21.986389%, 49.269104%, 71.974182%)" offset="0.140625"/><stop stop-opacity="1" stop-color="rgb(21.966553%, 49.072266%, 71.633911%)" offset="0.15625"/><stop stop-opacity="1" stop-color="rgb(21.948242%, 48.875427%, 71.29364%)" offset="0.171875"/><stop stop-opacity="1" stop-color="rgb(21.928406%, 48.678589%, 70.953369%)" offset="0.1875"/><stop stop-opacity="1" stop-color="rgb(21.910095%, 48.48175%, 70.611572%)" offset="0.203125"/><stop stop-opacity="1" stop-color="rgb(21.890259%, 48.286438%, 70.271301%)" offset="0.21875"/><stop stop-opacity="1" stop-color="rgb(21.870422%, 48.0896%, 69.93103%)" offset="0.234375"/><stop stop-opacity="1" stop-color="rgb(21.852112%, 47.892761%, 69.590759%)" offset="0.25"/><stop stop-opacity="1" stop-color="rgb(21.832275%, 47.695923%, 69.250488%)" offset="0.265625"/><stop stop-opacity="1" stop-color="rgb(21.813965%, 47.499084%, 68.908691%)" offset="0.28125"/><stop stop-opacity="1" stop-color="rgb(21.794128%, 47.302246%, 68.56842%)" offset="0.296875"/><stop stop-opacity="1" stop-color="rgb(21.775818%, 47.105408%, 68.228149%)" offset="0.3125"/><stop stop-opacity="1" stop-color="rgb(21.755981%, 46.908569%, 67.887878%)" offset="0.328125"/><stop stop-opacity="1" stop-color="rgb(21.736145%, 46.711731%, 67.546082%)" offset="0.34375"/><stop stop-opacity="1" stop-color="rgb(21.717834%, 46.514893%, 67.205811%)" offset="0.359375"/><stop stop-opacity="1" stop-color="rgb(21.697998%, 46.31958%, 66.86554%)" offset="0.375"/><stop stop-opacity="1" stop-color="rgb(21.679688%, 46.122742%, 66.525269%)" offset="0.390625"/><stop stop-opacity="1" stop-color="rgb(21.659851%, 45.925903%, 66.184998%)" offset="0.40625"/><stop stop-opacity="1" stop-color="rgb(21.641541%, 45.729065%, 65.843201%)" offset="0.421875"/><stop stop-opacity="1" stop-color="rgb(21.621704%, 45.532227%, 65.50293%)" offset="0.4375"/><stop stop-opacity="1" stop-color="rgb(21.601868%, 45.335388%, 65.162659%)" offset="0.453125"/><stop stop-opacity="1" stop-color="rgb(21.583557%, 45.13855%, 64.822388%)" offset="0.46875"/><stop stop-opacity="1" stop-color="rgb(21.563721%, 44.941711%, 64.482117%)" offset="0.484375"/><stop stop-opacity="1" stop-color="rgb(21.54541%, 44.744873%, 64.14032%)" offset="0.494335"/><stop stop-opacity="1" stop-color="rgb(21.536255%, 44.647217%, 63.970947%)" offset="0.5"/><stop stop-opacity="1" stop-color="rgb(21.525574%, 44.548035%, 63.800049%)" offset="0.505665"/><stop stop-opacity="1" stop-color="rgb(21.516418%, 44.450378%, 63.630676%)" offset="0.515625"/><stop stop-opacity="1" stop-color="rgb(21.505737%, 44.352722%, 63.459778%)" offset="0.53125"/><stop stop-opacity="1" stop-color="rgb(21.487427%, 44.155884%, 63.119507%)" offset="0.546875"/><stop stop-opacity="1" stop-color="rgb(21.46759%, 43.959045%, 62.77771%)" offset="0.5625"/><stop stop-opacity="1" stop-color="rgb(21.44928%, 43.762207%, 62.437439%)" offset="0.578125"/><stop stop-opacity="1" stop-color="rgb(21.429443%, 43.565369%, 62.097168%)" offset="0.59375"/><stop stop-opacity="1" stop-color="rgb(21.411133%, 43.36853%, 61.756897%)" offset="0.609375"/><stop stop-opacity="1" stop-color="rgb(21.391296%, 43.171692%, 61.416626%)" offset="0.625"/><stop stop-opacity="1" stop-color="rgb(21.37146%, 42.974854%, 61.074829%)" offset="0.640625"/><stop stop-opacity="1" stop-color="rgb(21.353149%, 42.778015%, 60.734558%)" offset="0.65625"/><stop stop-opacity="1" stop-color="rgb(21.333313%, 42.582703%, 60.394287%)" offset="0.671875"/><stop stop-opacity="1" stop-color="rgb(21.315002%, 42.385864%, 60.054016%)" offset="0.6875"/><stop stop-opacity="1" stop-color="rgb(21.295166%, 42.189026%, 59.713745%)" offset="0.703125"/><stop stop-opacity="1" stop-color="rgb(21.276855%, 41.992188%, 59.371948%)" offset="0.71875"/><stop stop-opacity="1" stop-color="rgb(21.257019%, 41.795349%, 59.031677%)" offset="0.734375"/><stop stop-opacity="1" stop-color="rgb(21.237183%, 41.598511%, 58.691406%)" offset="0.75"/><stop stop-opacity="1" stop-color="rgb(21.218872%, 41.401672%, 58.351135%)" offset="0.765625"/><stop stop-opacity="1" stop-color="rgb(21.203613%, 41.25061%, 58.09021%)" offset="0.78125"/><stop stop-opacity="1" stop-color="rgb(21.199036%, 41.19873%, 57.998657%)" offset="0.8125"/><stop stop-opacity="1" stop-color="rgb(21.199036%, 41.19873%, 57.998657%)" offset="0.875"/><stop stop-opacity="1" stop-color="rgb(21.199036%, 41.19873%, 57.998657%)" offset="1"/></linearGradient><clipPath id="a63ff82704"><path d="M 120 107 L 152.851562 107 L 152.851562 140.988281 L 120 140.988281 Z M 120 107 " clip-rule="nonzero"/></clipPath><clipPath id="b84b123192"><path d="M 130.9375 140.976562 C 142.140625 140.976562 141.441406 136.089844 141.441406 136.089844 L 141.429688 131.027344 L 130.738281 131.027344 L 130.738281 129.507812 L 145.675781 129.507812 C 145.675781 129.507812 152.847656 130.324219 152.847656 118.957031 C 152.847656 107.589844 146.589844 107.992188 146.589844 107.992188 L 142.855469 107.992188 L 142.855469 113.265625 C 142.855469 113.265625 143.054688 119.558594 136.695312 119.558594 L 126.089844 119.558594 C 126.089844 119.558594 120.132812 119.460938 120.132812 125.351562 L 120.132812 135.082031 C 120.132812 135.082031 119.230469 140.976562 130.9375 140.976562 Z M 136.832031 137.570312 C 135.769531 137.570312 134.910156 136.707031 134.910156 135.636719 C 134.910156 134.566406 135.769531 133.703125 136.832031 133.703125 C 137.898438 133.703125 138.757812 134.566406 138.757812 135.636719 C 138.757812 136.707031 137.898438 137.570312 136.832031 137.570312 Z M 136.832031 137.570312 " clip-rule="nonzero"/></clipPath><linearGradient x1="-0.0326454" gradientTransform="matrix(32.728341, 0, 0, 32.984979, 120.117726, 107.990046)" y1="-0.00636602" x2="1.013977" gradientUnits="userSpaceOnUse" y2="0.985247" id="4bb9309591"><stop stop-opacity="1" stop-color="rgb(100%, 87.799072%, 32.199097%)" offset="0"/><stop stop-opacity="1" stop-color="rgb(100%, 87.799072%, 32.199097%)" offset="0.125"/><stop stop-opacity="1" stop-color="rgb(100%, 87.799072%, 32.199097%)" offset="0.1875"/><stop stop-opacity="1" stop-color="rgb(100%, 87.759399%, 32.15332%)" offset="0.21875"/><stop stop-opacity="1" stop-color="rgb(100%, 87.590027%, 31.959534%)" offset="0.234375"/><stop stop-opacity="1" stop-color="rgb(100%, 87.332153%, 31.661987%)" offset="0.25"/><stop stop-opacity="1" stop-color="rgb(100%, 87.07428%, 31.365967%)" offset="0.265625"/><stop stop-opacity="1" stop-color="rgb(100%, 86.816406%, 31.06842%)" offset="0.28125"/><stop stop-opacity="1" stop-color="rgb(100%, 86.558533%, 30.7724%)" offset="0.296875"/><stop stop-opacity="1" stop-color="rgb(100%, 86.300659%, 30.474854%)" offset="0.3125"/><stop stop-opacity="1" stop-color="rgb(100%, 86.04126%, 30.177307%)" offset="0.328125"/><stop stop-opacity="1" stop-color="rgb(100%, 85.783386%, 29.881287%)" offset="0.34375"/><stop stop-opacity="1" stop-color="rgb(100%, 85.525513%, 29.58374%)" offset="0.359375"/><stop stop-opacity="1" stop-color="rgb(100%, 85.267639%, 29.28772%)" offset="0.375"/><stop stop-opacity="1" stop-color="rgb(100%, 85.009766%, 28.990173%)" offset="0.390625"/><stop stop-opacity="1" stop-color="rgb(100%, 84.751892%, 28.694153%)" offset="0.40625"/><stop stop-opacity="1" stop-color="rgb(100%, 84.494019%, 28.396606%)" offset="0.421875"/><stop stop-opacity="1" stop-color="rgb(100%, 84.236145%, 28.100586%)" offset="0.4375"/><stop stop-opacity="1" stop-color="rgb(100%, 83.978271%, 27.80304%)" offset="0.453125"/><stop stop-opacity="1" stop-color="rgb(100%, 83.720398%, 27.505493%)" offset="0.46875"/><stop stop-opacity="1" stop-color="rgb(100%, 83.460999%, 27.209473%)" offset="0.482837"/><stop stop-opacity="1" stop-color="rgb(100%, 83.332825%, 27.061462%)" offset="0.484375"/><stop stop-opacity="1" stop-color="rgb(100%, 83.203125%, 26.911926%)" offset="0.5"/><stop stop-opacity="1" stop-color="rgb(100%, 82.945251%, 26.615906%)" offset="0.515625"/><stop stop-opacity="1" stop-color="rgb(100%, 82.687378%, 26.318359%)" offset="0.517163"/><stop stop-opacity="1" stop-color="rgb(100%, 82.559204%, 26.170349%)" offset="0.53125"/><stop stop-opacity="1" stop-color="rgb(100%, 82.429504%, 26.022339%)" offset="0.546875"/><stop stop-opacity="1" stop-color="rgb(100%, 82.171631%, 25.724792%)" offset="0.5625"/><stop stop-opacity="1" stop-color="rgb(100%, 81.913757%, 25.428772%)" offset="0.578125"/><stop stop-opacity="1" stop-color="rgb(100%, 81.655884%, 25.131226%)" offset="0.59375"/><stop stop-opacity="1" stop-color="rgb(100%, 81.39801%, 24.835205%)" offset="0.609375"/><stop stop-opacity="1" stop-color="rgb(100%, 81.138611%, 24.537659%)" offset="0.625"/><stop stop-opacity="1" stop-color="rgb(100%, 80.880737%, 24.240112%)" offset="0.640625"/><stop stop-opacity="1" stop-color="rgb(100%, 80.622864%, 23.944092%)" offset="0.65625"/><stop stop-opacity="1" stop-color="rgb(100%, 80.36499%, 23.646545%)" offset="0.671875"/><stop stop-opacity="1" stop-color="rgb(100%, 80.107117%, 23.350525%)" offset="0.6875"/><stop stop-opacity="1" stop-color="rgb(100%, 79.849243%, 23.052979%)" offset="0.703125"/><stop stop-opacity="1" stop-color="rgb(100%, 79.59137%, 22.756958%)" offset="0.71875"/><stop stop-opacity="1" stop-color="rgb(100%, 79.333496%, 22.459412%)" offset="0.734375"/><stop stop-opacity="1" stop-color="rgb(100%, 79.075623%, 22.163391%)" offset="0.75"/><stop stop-opacity="1" stop-color="rgb(100%, 78.816223%, 21.865845%)" offset="0.765625"/><stop stop-opacity="1" stop-color="rgb(100%, 78.55835%, 21.568298%)" offset="0.78125"/><stop stop-opacity="1" stop-color="rgb(100%, 78.300476%, 21.272278%)" offset="0.796875"/><stop stop-opacity="1" stop-color="rgb(100%, 78.042603%, 20.974731%)" offset="0.8125"/><stop stop-opacity="1" stop-color="rgb(100%, 77.784729%, 20.678711%)" offset="0.828125"/><stop stop-opacity="1" stop-color="rgb(100%, 77.526855%, 20.381165%)" offset="0.84375"/><stop stop-opacity="1" stop-color="rgb(100%, 77.268982%, 20.085144%)" offset="0.859375"/><stop stop-opacity="1" stop-color="rgb(100%, 77.011108%, 19.787598%)" offset="0.875"/><stop stop-opacity="1" stop-color="rgb(100%, 76.753235%, 19.491577%)" offset="0.890625"/><stop stop-opacity="1" stop-color="rgb(100%, 76.560974%, 19.270325%)" offset="0.90625"/><stop stop-opacity="1" stop-color="rgb(100%, 76.499939%, 19.198608%)" offset="0.9375"/><stop stop-opacity="1" stop-color="rgb(100%, 76.499939%, 19.198608%)" offset="1"/></linearGradient></defs><path fill="#ffffff" d="M 216.699219 177.488281 C 217.363281 176.933594 218 176.34375 218.609375 175.726562 C 219.214844 175.105469 219.789062 174.457031 220.328125 173.777344 C 220.867188 173.097656 221.371094 172.394531 221.839844 171.664062 C 222.308594 170.933594 222.738281 170.183594 223.132812 169.410156 C 223.523438 168.636719 223.875 167.84375 224.183594 167.035156 C 224.496094 166.226562 224.765625 165.402344 224.992188 164.566406 C 225.21875 163.726562 225.402344 162.882812 225.542969 162.023438 C 225.683594 161.167969 225.78125 160.308594 225.832031 159.441406 C 225.886719 158.578125 225.894531 157.710938 225.859375 156.84375 C 225.820312 155.976562 225.742188 155.117188 225.617188 154.257812 C 225.496094 153.398438 225.328125 152.550781 225.117188 151.707031 C 224.90625 150.867188 224.652344 150.039062 224.359375 149.222656 C 224.0625 148.40625 223.726562 147.609375 223.351562 146.828125 C 222.972656 146.046875 222.558594 145.285156 222.105469 144.546875 C 221.652344 143.808594 221.160156 143.09375 220.632812 142.40625 C 220.105469 141.714844 219.546875 141.054688 218.949219 140.425781 C 218.355469 139.792969 217.730469 139.195312 217.074219 138.625 C 216.421875 138.058594 215.738281 137.523438 215.027344 137.027344 C 214.316406 136.527344 213.585938 136.066406 212.828125 135.644531 C 212.070312 135.222656 211.292969 134.835938 210.496094 134.492188 C 209.703125 134.148438 208.890625 133.847656 208.0625 133.585938 C 207.234375 133.324219 206.398438 133.105469 205.546875 132.929688 C 204.699219 132.753906 203.84375 132.625 202.980469 132.535156 C 202.117188 132.445312 201.253906 132.402344 200.386719 132.402344 C 199.519531 132.402344 198.652344 132.445312 197.789062 132.535156 C 196.925781 132.625 196.070312 132.753906 195.222656 132.929688 C 194.371094 133.105469 193.535156 133.324219 192.707031 133.585938 C 191.878906 133.847656 191.070312 134.148438 190.273438 134.492188 C 189.476562 134.835938 188.699219 135.222656 187.941406 135.644531 C 187.1875 136.066406 186.453125 136.527344 185.742188 137.027344 C 185.03125 137.523438 184.351562 138.058594 183.695312 138.625 C 183.039062 139.195312 182.414062 139.792969 181.820312 140.425781 C 181.226562 141.054688 180.664062 141.714844 180.136719 142.40625 C 179.609375 143.09375 179.121094 143.808594 178.664062 144.546875 C 178.210938 145.285156 177.796875 146.046875 177.417969 146.828125 C 177.042969 147.609375 176.707031 148.40625 176.414062 149.222656 C 176.117188 150.039062 175.863281 150.867188 175.652344 151.707031 C 175.445312 152.550781 175.277344 153.398438 175.152344 154.257812 C 175.027344 155.117188 174.949219 155.976562 174.914062 156.84375 C 174.878906 157.710938 174.886719 158.578125 174.9375 159.441406 C 174.992188 160.308594 175.085938 161.167969 175.226562 162.023438 C 175.367188 162.882812 175.550781 163.726562 175.777344 164.566406 C 176.003906 165.402344 176.273438 166.226562 176.585938 167.035156 C 176.894531 167.84375 177.246094 168.636719 177.640625 169.410156 C 178.03125 170.183594 178.460938 170.933594 178.929688 171.664062 C 179.398438 172.394531 179.902344 173.097656 180.441406 173.777344 C 180.984375 174.457031 181.554688 175.105469 182.164062 175.726562 C 182.769531 176.34375 183.40625 176.933594 184.074219 177.488281 C 182.625 178.226562 181.234375 179.0625 179.902344 179.996094 C 178.570312 180.925781 177.304688 181.941406 176.113281 183.046875 C 174.917969 184.148438 173.808594 185.332031 172.777344 186.585938 C 171.742188 187.84375 170.804688 189.164062 169.953125 190.550781 C 169.101562 191.933594 168.347656 193.371094 167.695312 194.859375 C 167.042969 196.347656 166.492188 197.875 166.046875 199.4375 C 165.601562 201 165.265625 202.585938 165.039062 204.199219 C 164.8125 205.808594 164.695312 207.425781 164.691406 209.050781 L 164.691406 221.183594 C 164.691406 222.085938 164.914062 222.929688 165.359375 223.714844 C 165.808594 224.496094 166.417969 225.117188 167.195312 225.578125 C 169.703125 227.039062 172.296875 228.328125 174.972656 229.445312 C 177.652344 230.566406 180.390625 231.503906 183.195312 232.261719 C 185.996094 233.015625 188.835938 233.585938 191.714844 233.96875 C 194.589844 234.347656 197.480469 234.539062 200.382812 234.539062 C 203.285156 234.539062 206.175781 234.347656 209.050781 233.96875 C 211.929688 233.585938 214.769531 233.015625 217.570312 232.261719 C 220.371094 231.503906 223.113281 230.566406 225.789062 229.445312 C 228.46875 228.328125 231.0625 227.039062 233.570312 225.578125 C 234.347656 225.117188 234.957031 224.496094 235.402344 223.714844 C 235.851562 222.929688 236.074219 222.085938 236.074219 221.183594 L 236.074219 209.050781 C 236.085938 207.421875 235.988281 205.800781 235.773438 204.183594 C 235.5625 202.570312 235.238281 200.976562 234.800781 199.40625 C 234.363281 197.835938 233.820312 196.304688 233.171875 194.8125 C 232.519531 193.316406 231.769531 191.875 230.917969 190.488281 C 230.066406 189.097656 229.121094 187.777344 228.082031 186.519531 C 227.042969 185.265625 225.925781 184.085938 224.722656 182.988281 C 223.519531 181.886719 222.246094 180.878906 220.902344 179.957031 C 219.558594 179.035156 218.15625 178.210938 216.699219 177.488281 Z M 200.382812 142.765625 C 201.386719 142.765625 202.382812 142.863281 203.367188 143.058594 C 204.351562 143.257812 205.308594 143.546875 206.234375 143.929688 C 207.164062 144.316406 208.046875 144.785156 208.878906 145.34375 C 209.714844 145.902344 210.488281 146.535156 211.199219 147.246094 C 211.910156 147.957031 212.542969 148.730469 213.101562 149.5625 C 213.660156 150.398438 214.128906 151.28125 214.515625 152.207031 C 214.898438 153.136719 215.1875 154.09375 215.382812 155.078125 C 215.582031 156.0625 215.679688 157.058594 215.679688 158.0625 C 215.679688 159.066406 215.582031 160.0625 215.382812 161.046875 C 215.1875 162.03125 214.898438 162.988281 214.515625 163.917969 C 214.128906 164.84375 213.660156 165.726562 213.101562 166.5625 C 212.542969 167.394531 211.910156 168.167969 211.199219 168.878906 C 210.488281 169.589844 209.714844 170.222656 208.878906 170.78125 C 208.046875 171.339844 207.164062 171.808594 206.234375 172.195312 C 205.308594 172.578125 204.351562 172.867188 203.367188 173.066406 C 202.382812 173.261719 201.386719 173.359375 200.382812 173.359375 C 199.378906 173.359375 198.382812 173.261719 197.398438 173.066406 C 196.414062 172.867188 195.457031 172.578125 194.527344 172.195312 C 193.601562 171.808594 192.71875 171.339844 191.882812 170.78125 C 191.050781 170.222656 190.277344 169.589844 189.566406 168.878906 C 188.855469 168.167969 188.222656 167.394531 187.664062 166.5625 C 187.105469 165.726562 186.632812 164.84375 186.25 163.917969 C 185.867188 162.988281 185.574219 162.03125 185.378906 161.046875 C 185.183594 160.0625 185.085938 159.066406 185.085938 158.0625 C 185.085938 157.058594 185.1875 156.0625 185.382812 155.078125 C 185.578125 154.09375 185.871094 153.140625 186.253906 152.210938 C 186.640625 151.285156 187.109375 150.402344 187.667969 149.566406 C 188.226562 148.734375 188.859375 147.960938 189.570312 147.25 C 190.28125 146.542969 191.054688 145.90625 191.886719 145.347656 C 192.722656 144.792969 193.605469 144.320312 194.53125 143.933594 C 195.457031 143.550781 196.414062 143.257812 197.398438 143.0625 C 198.382812 142.867188 199.378906 142.765625 200.382812 142.765625 Z M 225.875 218.191406 C 223.910156 219.195312 221.890625 220.078125 219.820312 220.84375 C 217.746094 221.609375 215.640625 222.25 213.492188 222.765625 C 211.34375 223.28125 209.175781 223.667969 206.984375 223.925781 C 204.789062 224.1875 202.589844 224.316406 200.382812 224.316406 C 198.175781 224.316406 195.972656 224.1875 193.78125 223.925781 C 191.589844 223.667969 189.417969 223.28125 187.273438 222.765625 C 185.125 222.25 183.015625 221.609375 180.945312 220.84375 C 178.875 220.078125 176.855469 219.195312 174.886719 218.191406 L 174.886719 209.050781 C 174.886719 208.214844 174.929688 207.382812 175.011719 206.550781 C 175.09375 205.71875 175.214844 204.894531 175.378906 204.078125 C 175.542969 203.257812 175.742188 202.449219 175.984375 201.648438 C 176.226562 200.851562 176.507812 200.066406 176.828125 199.292969 C 177.148438 198.523438 177.503906 197.769531 177.898438 197.03125 C 178.292969 196.296875 178.722656 195.582031 179.183594 194.886719 C 179.648438 194.191406 180.144531 193.523438 180.675781 192.878906 C 181.203125 192.230469 181.765625 191.613281 182.355469 191.023438 C 182.945312 190.433594 183.5625 189.871094 184.210938 189.34375 C 184.855469 188.8125 185.523438 188.316406 186.21875 187.851562 C 186.914062 187.390625 187.628906 186.960938 188.363281 186.566406 C 189.101562 186.171875 189.855469 185.816406 190.625 185.496094 C 191.398438 185.175781 192.183594 184.894531 192.980469 184.652344 C 193.78125 184.410156 194.589844 184.210938 195.410156 184.046875 C 196.226562 183.882812 197.050781 183.761719 197.882812 183.679688 C 198.714844 183.597656 199.546875 183.554688 200.382812 183.554688 C 201.21875 183.554688 202.050781 183.597656 202.882812 183.679688 C 203.710938 183.761719 204.535156 183.882812 205.355469 184.046875 C 206.175781 184.210938 206.984375 184.410156 207.78125 184.652344 C 208.582031 184.894531 209.367188 185.175781 210.136719 185.496094 C 210.910156 185.816406 211.664062 186.171875 212.398438 186.566406 C 213.136719 186.960938 213.851562 187.390625 214.546875 187.851562 C 215.238281 188.316406 215.910156 188.8125 216.554688 189.34375 C 217.199219 189.871094 217.820312 190.433594 218.410156 191.023438 C 219 191.613281 219.558594 192.230469 220.089844 192.878906 C 220.617188 193.523438 221.117188 194.191406 221.578125 194.886719 C 222.042969 195.582031 222.472656 196.296875 222.867188 197.03125 C 223.257812 197.769531 223.617188 198.523438 223.9375 199.292969 C 224.253906 200.066406 224.535156 200.851562 224.777344 201.648438 C 225.019531 202.449219 225.222656 203.257812 225.386719 204.078125 C 225.550781 204.894531 225.671875 205.71875 225.753906 206.550781 C 225.835938 207.382812 225.875 208.214844 225.875 209.050781 Z M 225.875 218.191406 " fill-opacity="1" fill-rule="nonzero"/><path fill="#ffffff" d="M 216.699219 44.917969 C 217.363281 44.363281 218 43.777344 218.609375 43.15625 C 219.214844 42.535156 219.789062 41.886719 220.328125 41.210938 C 220.867188 40.53125 221.371094 39.828125 221.839844 39.097656 C 222.308594 38.367188 222.738281 37.613281 223.132812 36.839844 C 223.523438 36.066406 223.875 35.277344 224.183594 34.464844 C 224.496094 33.65625 224.765625 32.832031 224.992188 31.996094 C 225.21875 31.160156 225.402344 30.3125 225.542969 29.457031 C 225.683594 28.601562 225.78125 27.738281 225.832031 26.875 C 225.886719 26.007812 225.894531 25.144531 225.859375 24.277344 C 225.820312 23.410156 225.742188 22.546875 225.617188 21.6875 C 225.496094 20.832031 225.328125 19.980469 225.117188 19.140625 C 224.90625 18.296875 224.652344 17.46875 224.359375 16.652344 C 224.0625 15.839844 223.726562 15.039062 223.351562 14.257812 C 222.972656 13.476562 222.558594 12.71875 222.105469 11.976562 C 221.652344 11.238281 221.160156 10.527344 220.632812 9.835938 C 220.105469 9.148438 219.546875 8.488281 218.949219 7.855469 C 218.355469 7.226562 217.730469 6.625 217.074219 6.058594 C 216.421875 5.488281 215.738281 4.957031 215.027344 4.457031 C 214.316406 3.960938 213.585938 3.5 212.828125 3.078125 C 212.070312 2.652344 211.292969 2.269531 210.496094 1.925781 C 209.703125 1.582031 208.890625 1.277344 208.0625 1.015625 C 207.234375 0.757812 206.398438 0.539062 205.546875 0.363281 C 204.699219 0.1875 203.84375 0.0546875 202.980469 -0.0351562 C 202.117188 -0.121094 201.253906 -0.167969 200.386719 -0.167969 C 199.519531 -0.167969 198.652344 -0.121094 197.789062 -0.0351562 C 196.925781 0.0546875 196.070312 0.1875 195.222656 0.363281 C 194.371094 0.539062 193.535156 0.757812 192.707031 1.015625 C 191.878906 1.277344 191.070312 1.582031 190.273438 1.925781 C 189.476562 2.269531 188.699219 2.652344 187.941406 3.078125 C 187.1875 3.5 186.453125 3.960938 185.742188 4.457031 C 185.03125 4.957031 184.351562 5.488281 183.695312 6.058594 C 183.039062 6.625 182.414062 7.226562 181.820312 7.855469 C 181.226562 8.488281 180.664062 9.148438 180.136719 9.835938 C 179.609375 10.527344 179.121094 11.238281 178.664062 11.976562 C 178.210938 12.71875 177.796875 13.476562 177.417969 14.257812 C 177.042969 15.039062 176.707031 15.839844 176.414062 16.652344 C 176.117188 17.46875 175.863281 18.296875 175.652344 19.140625 C 175.445312 19.980469 175.277344 20.832031 175.152344 21.6875 C 175.027344 22.546875 174.949219 23.410156 174.914062 24.277344 C 174.878906 25.144531 174.886719 26.007812 174.9375 26.875 C 174.992188 27.738281 175.085938 28.601562 175.226562 29.457031 C 175.367188 30.3125 175.550781 31.160156 175.777344 31.996094 C 176.003906 32.832031 176.273438 33.65625 176.585938 34.464844 C 176.894531 35.277344 177.246094 36.066406 177.640625 36.839844 C 178.03125 37.613281 178.460938 38.367188 178.929688 39.097656 C 179.398438 39.828125 179.902344 40.53125 180.441406 41.210938 C 180.984375 41.886719 181.554688 42.535156 182.164062 43.15625 C 182.769531 43.777344 183.40625 44.363281 184.074219 44.917969 C 182.625 45.660156 181.234375 46.496094 179.902344 47.425781 C 178.570312 48.355469 177.304688 49.375 176.113281 50.476562 C 174.917969 51.582031 173.808594 52.761719 172.777344 54.019531 C 171.742188 55.273438 170.804688 56.59375 169.953125 57.980469 C 169.101562 59.367188 168.347656 60.800781 167.695312 62.292969 C 167.042969 63.78125 166.492188 65.304688 166.046875 66.867188 C 165.601562 68.433594 165.265625 70.019531 165.039062 71.628906 C 164.8125 73.238281 164.695312 74.855469 164.691406 76.480469 L 164.691406 88.617188 C 164.691406 89.519531 164.914062 90.363281 165.359375 91.144531 C 165.808594 91.929688 166.417969 92.550781 167.195312 93.007812 C 169.703125 94.46875 172.296875 95.761719 174.972656 96.878906 C 177.652344 97.996094 180.390625 98.933594 183.195312 99.691406 C 185.996094 100.449219 188.835938 101.015625 191.714844 101.398438 C 194.589844 101.78125 197.480469 101.972656 200.382812 101.972656 C 203.285156 101.972656 206.175781 101.78125 209.050781 101.398438 C 211.929688 101.015625 214.769531 100.449219 217.570312 99.691406 C 220.371094 98.933594 223.113281 97.996094 225.789062 96.878906 C 228.46875 95.761719 231.0625 94.46875 233.570312 93.007812 C 234.347656 92.550781 234.957031 91.929688 235.402344 91.144531 C 235.851562 90.363281 236.074219 89.519531 236.074219 88.617188 L 236.074219 76.480469 C 236.085938 74.851562 235.988281 73.230469 235.773438 71.613281 C 235.5625 70 235.238281 68.40625 234.800781 66.835938 C 234.363281 65.269531 233.820312 63.734375 233.171875 62.242188 C 232.519531 60.75 231.769531 59.308594 230.917969 57.917969 C 230.066406 56.53125 229.121094 55.207031 228.082031 53.953125 C 227.042969 52.695312 225.925781 51.519531 224.722656 50.417969 C 223.519531 49.320312 222.246094 48.308594 220.902344 47.386719 C 219.558594 46.46875 218.15625 45.644531 216.699219 44.917969 Z M 200.382812 10.199219 C 201.386719 10.199219 202.382812 10.296875 203.367188 10.492188 C 204.351562 10.6875 205.308594 10.976562 206.234375 11.363281 C 207.164062 11.746094 208.046875 12.21875 208.878906 12.777344 C 209.714844 13.332031 210.488281 13.96875 211.199219 14.679688 C 211.910156 15.386719 212.542969 16.160156 213.101562 16.996094 C 213.660156 17.832031 214.128906 18.710938 214.515625 19.640625 C 214.898438 20.566406 215.1875 21.523438 215.382812 22.507812 C 215.582031 23.496094 215.679688 24.488281 215.679688 25.492188 C 215.679688 26.5 215.582031 27.492188 215.382812 28.476562 C 215.1875 29.464844 214.898438 30.417969 214.515625 31.347656 C 214.128906 32.277344 213.660156 33.15625 213.101562 33.992188 C 212.542969 34.828125 211.910156 35.601562 211.199219 36.308594 C 210.488281 37.019531 209.714844 37.65625 208.878906 38.210938 C 208.046875 38.769531 207.164062 39.242188 206.234375 39.625 C 205.308594 40.011719 204.351562 40.300781 203.367188 40.496094 C 202.382812 40.691406 201.386719 40.789062 200.382812 40.789062 C 199.378906 40.789062 198.382812 40.691406 197.398438 40.496094 C 196.414062 40.300781 195.457031 40.011719 194.527344 39.625 C 193.601562 39.242188 192.71875 38.769531 191.882812 38.210938 C 191.050781 37.65625 190.277344 37.019531 189.566406 36.308594 C 188.855469 35.601562 188.222656 34.828125 187.664062 33.992188 C 187.105469 33.15625 186.632812 32.277344 186.25 31.347656 C 185.867188 30.417969 185.574219 29.464844 185.378906 28.476562 C 185.183594 27.492188 185.085938 26.5 185.085938 25.492188 C 185.085938 24.488281 185.1875 23.496094 185.382812 22.511719 C 185.578125 21.527344 185.871094 20.570312 186.253906 19.644531 C 186.640625 18.714844 187.109375 17.835938 187.667969 17 C 188.226562 16.164062 188.859375 15.394531 189.570312 14.683594 C 190.28125 13.972656 191.054688 13.339844 191.886719 12.78125 C 192.722656 12.222656 193.605469 11.75 194.53125 11.367188 C 195.457031 10.980469 196.414062 10.691406 197.398438 10.496094 C 198.382812 10.296875 199.378906 10.199219 200.382812 10.199219 Z M 225.875 85.625 C 223.910156 86.625 221.890625 87.511719 219.820312 88.273438 C 217.746094 89.039062 215.640625 89.679688 213.492188 90.195312 C 211.34375 90.710938 209.175781 91.097656 206.984375 91.359375 C 204.789062 91.617188 202.589844 91.75 200.382812 91.75 C 198.175781 91.75 195.972656 91.617188 193.78125 91.359375 C 191.589844 91.097656 189.417969 90.710938 187.273438 90.195312 C 185.125 89.679688 183.015625 89.039062 180.945312 88.273438 C 178.875 87.511719 176.855469 86.625 174.886719 85.625 L 174.886719 76.480469 C 174.886719 75.648438 174.929688 74.8125 175.011719 73.984375 C 175.09375 73.152344 175.214844 72.328125 175.378906 71.507812 C 175.542969 70.6875 175.742188 69.878906 175.984375 69.082031 C 176.226562 68.28125 176.507812 67.496094 176.828125 66.726562 C 177.148438 65.953125 177.503906 65.199219 177.898438 64.464844 C 178.292969 63.726562 178.722656 63.011719 179.183594 62.316406 C 179.648438 61.625 180.144531 60.953125 180.675781 60.308594 C 181.203125 59.664062 181.765625 59.046875 182.355469 58.453125 C 182.945312 57.863281 183.5625 57.304688 184.210938 56.773438 C 184.855469 56.246094 185.523438 55.75 186.21875 55.285156 C 186.914062 54.820312 187.628906 54.390625 188.363281 54 C 189.101562 53.605469 189.855469 53.246094 190.625 52.929688 C 191.398438 52.609375 192.183594 52.328125 192.980469 52.085938 C 193.78125 51.84375 194.589844 51.640625 195.410156 51.476562 C 196.226562 51.316406 197.050781 51.191406 197.882812 51.109375 C 198.714844 51.027344 199.546875 50.988281 200.382812 50.988281 C 201.21875 50.988281 202.050781 51.027344 202.882812 51.109375 C 203.710938 51.191406 204.535156 51.316406 205.355469 51.476562 C 206.175781 51.640625 206.984375 51.84375 207.78125 52.085938 C 208.582031 52.328125 209.367188 52.609375 210.136719 52.929688 C 210.910156 53.246094 211.664062 53.605469 212.398438 54 C 213.136719 54.390625 213.851562 54.820312 214.546875 55.285156 C 215.238281 55.75 215.910156 56.246094 216.554688 56.773438 C 217.199219 57.304688 217.820312 57.863281 218.410156 58.453125 C 219 59.046875 219.558594 59.664062 220.089844 60.308594 C 220.617188 60.953125 221.117188 61.625 221.578125 62.316406 C 222.042969 63.011719 222.472656 63.726562 222.867188 64.464844 C 223.257812 65.199219 223.617188 65.953125 223.9375 66.726562 C 224.253906 67.496094 224.535156 68.28125 224.777344 69.082031 C 225.019531 69.878906 225.222656 70.6875 225.386719 71.507812 C 225.550781 72.328125 225.671875 73.152344 225.753906 73.984375 C 225.835938 74.8125 225.875 75.648438 225.875 76.480469 Z M 225.875 85.625 " fill-opacity="1" fill-rule="nonzero"/><path fill="#ffffff" d="M 47.417969 183.554688 C 55.042969 183.578125 62.535156 182.59375 69.898438 180.605469 C 77.257812 178.617188 84.226562 175.691406 90.804688 171.835938 C 91.578125 171.375 92.191406 170.753906 92.636719 169.972656 C 93.085938 169.1875 93.308594 168.347656 93.308594 167.445312 L 93.308594 151.261719 C 93.3125 149.058594 93.15625 146.871094 92.84375 144.691406 C 92.53125 142.515625 92.0625 140.371094 91.441406 138.257812 C 90.816406 136.148438 90.046875 134.09375 89.125 132.09375 C 88.203125 130.097656 87.140625 128.175781 85.941406 126.332031 C 84.742188 124.484375 83.417969 122.738281 81.964844 121.082031 C 80.511719 119.429688 78.945312 117.890625 77.269531 116.464844 C 75.59375 115.039062 73.824219 113.742188 71.960938 112.570312 C 70.097656 111.402344 68.160156 110.371094 66.144531 109.484375 C 67.066406 108.828125 67.953125 108.125 68.800781 107.375 C 69.652344 106.625 70.457031 105.832031 71.222656 104.996094 C 71.988281 104.160156 72.707031 103.289062 73.382812 102.378906 C 74.054688 101.46875 74.679688 100.523438 75.253906 99.546875 C 75.828125 98.574219 76.347656 97.570312 76.816406 96.539062 C 77.285156 95.507812 77.699219 94.453125 78.054688 93.378906 C 78.414062 92.304688 78.714844 91.214844 78.957031 90.109375 C 79.203125 89.003906 79.386719 87.886719 79.511719 86.761719 C 79.636719 85.636719 79.703125 84.507812 79.710938 83.375 C 79.71875 82.242188 79.664062 81.113281 79.554688 79.988281 C 79.441406 78.859375 79.269531 77.742188 79.042969 76.632812 C 78.8125 75.523438 78.523438 74.429688 78.179688 73.351562 C 77.835938 72.273438 77.4375 71.214844 76.980469 70.179688 C 76.523438 69.140625 76.015625 68.132812 75.453125 67.148438 C 74.890625 66.164062 74.277344 65.214844 73.617188 64.296875 C 72.953125 63.375 72.246094 62.496094 71.492188 61.652344 C 70.738281 60.808594 69.941406 60.003906 69.101562 59.246094 C 68.261719 58.484375 67.382812 57.769531 66.46875 57.101562 C 65.554688 56.433594 64.609375 55.816406 63.628906 55.246094 C 62.648438 54.679688 61.644531 54.164062 60.609375 53.699219 C 59.574219 53.238281 58.519531 52.832031 57.445312 52.480469 C 56.367188 52.128906 55.277344 51.832031 54.167969 51.597656 C 53.0625 51.359375 51.945312 51.183594 50.816406 51.0625 C 49.691406 50.945312 48.5625 50.882812 47.429688 50.882812 C 46.296875 50.882812 45.167969 50.941406 44.042969 51.0625 C 42.914062 51.179688 41.800781 51.355469 40.691406 51.59375 C 39.582031 51.828125 38.492188 52.121094 37.414062 52.472656 C 36.339844 52.824219 35.28125 53.230469 34.25 53.691406 C 33.214844 54.152344 32.207031 54.667969 31.226562 55.238281 C 30.25 55.804688 29.300781 56.421875 28.386719 57.089844 C 27.472656 57.757812 26.59375 58.46875 25.753906 59.230469 C 24.914062 59.988281 24.117188 60.792969 23.363281 61.636719 C 22.605469 62.480469 21.898438 63.359375 21.234375 64.277344 C 20.570312 65.195312 19.960938 66.148438 19.398438 67.128906 C 18.832031 68.113281 18.324219 69.121094 17.867188 70.160156 C 17.410156 71.195312 17.011719 72.253906 16.664062 73.332031 C 16.320312 74.410156 16.03125 75.503906 15.800781 76.613281 C 15.570312 77.722656 15.402344 78.839844 15.289062 79.964844 C 15.175781 81.09375 15.121094 82.222656 15.128906 83.355469 C 15.136719 84.488281 15.199219 85.617188 15.324219 86.742188 C 15.449219 87.867188 15.632812 88.984375 15.875 90.089844 C 16.121094 91.195312 16.417969 92.285156 16.777344 93.359375 C 17.132812 94.433594 17.546875 95.488281 18.015625 96.519531 C 18.480469 97.550781 19.003906 98.554688 19.574219 99.53125 C 20.148438 100.507812 20.773438 101.449219 21.445312 102.363281 C 22.117188 103.273438 22.835938 104.144531 23.601562 104.980469 C 24.367188 105.816406 25.171875 106.609375 26.019531 107.359375 C 26.871094 108.109375 27.753906 108.8125 28.675781 109.472656 C 26.667969 110.367188 24.738281 111.40625 22.878906 112.582031 C 21.019531 113.757812 19.257812 115.058594 17.585938 116.488281 C 15.914062 117.917969 14.355469 119.460938 12.90625 121.113281 C 11.457031 122.765625 10.132812 124.515625 8.933594 126.359375 C 7.738281 128.203125 6.679688 130.121094 5.757812 132.121094 C 4.835938 134.117188 4.058594 136.167969 3.433594 138.273438 C 2.804688 140.382812 2.332031 142.523438 2.015625 144.699219 C 1.695312 146.875 1.535156 149.0625 1.53125 151.261719 L 1.53125 167.445312 C 1.527344 168.347656 1.753906 169.1875 2.199219 169.972656 C 2.644531 170.757812 3.257812 171.378906 4.035156 171.835938 C 10.609375 175.695312 17.578125 178.617188 24.941406 180.605469 C 32.300781 182.59375 39.792969 183.578125 47.417969 183.554688 Z M 25.324219 83.285156 C 25.324219 82.558594 25.359375 81.839844 25.429688 81.117188 C 25.503906 80.398438 25.609375 79.683594 25.75 78.972656 C 25.890625 78.261719 26.066406 77.5625 26.277344 76.871094 C 26.484375 76.175781 26.730469 75.496094 27.003906 74.828125 C 27.28125 74.160156 27.589844 73.507812 27.933594 72.867188 C 28.273438 72.230469 28.644531 71.609375 29.046875 71.007812 C 29.449219 70.40625 29.878906 69.824219 30.335938 69.265625 C 30.796875 68.707031 31.28125 68.171875 31.792969 67.660156 C 32.304688 67.148438 32.839844 66.660156 33.398438 66.203125 C 33.960938 65.742188 34.539062 65.3125 35.140625 64.910156 C 35.742188 64.507812 36.363281 64.136719 37 63.796875 C 37.640625 63.453125 38.292969 63.144531 38.960938 62.867188 C 39.628906 62.589844 40.308594 62.347656 41 62.136719 C 41.695312 61.925781 42.394531 61.75 43.105469 61.609375 C 43.816406 61.46875 44.53125 61.363281 45.25 61.292969 C 45.96875 61.222656 46.691406 61.1875 47.414062 61.183594 C 48.140625 61.183594 48.859375 61.21875 49.582031 61.292969 C 50.300781 61.363281 51.015625 61.46875 51.726562 61.609375 C 52.433594 61.75 53.136719 61.925781 53.828125 62.136719 C 54.523438 62.347656 55.203125 62.589844 55.871094 62.867188 C 56.539062 63.144531 57.191406 63.453125 57.832031 63.792969 C 58.46875 64.132812 59.089844 64.503906 59.691406 64.90625 C 60.292969 65.308594 60.871094 65.738281 61.433594 66.199219 C 61.992188 66.65625 62.527344 67.144531 63.039062 67.65625 C 63.550781 68.167969 64.035156 68.703125 64.496094 69.261719 C 64.953125 69.820312 65.386719 70.402344 65.785156 71.003906 C 66.1875 71.605469 66.5625 72.222656 66.902344 72.863281 C 67.242188 73.5 67.550781 74.152344 67.828125 74.820312 C 68.105469 75.492188 68.351562 76.171875 68.558594 76.863281 C 68.769531 77.554688 68.945312 78.257812 69.085938 78.964844 C 69.226562 79.675781 69.335938 80.390625 69.40625 81.109375 C 69.476562 81.832031 69.511719 82.554688 69.511719 83.277344 C 69.511719 84 69.476562 84.722656 69.40625 85.441406 C 69.335938 86.164062 69.230469 86.878906 69.085938 87.585938 C 68.945312 88.296875 68.769531 88.996094 68.5625 89.691406 C 68.351562 90.382812 68.105469 91.0625 67.832031 91.730469 C 67.554688 92.402344 67.246094 93.054688 66.902344 93.691406 C 66.5625 94.332031 66.191406 94.949219 65.789062 95.550781 C 65.386719 96.152344 64.957031 96.734375 64.496094 97.292969 C 64.039062 97.851562 63.554688 98.386719 63.042969 98.898438 C 62.53125 99.410156 61.996094 99.898438 61.433594 100.355469 C 60.875 100.816406 60.296875 101.246094 59.695312 101.648438 C 59.09375 102.050781 58.472656 102.421875 57.832031 102.761719 C 57.195312 103.105469 56.542969 103.414062 55.875 103.691406 C 55.207031 103.964844 54.523438 104.210938 53.832031 104.421875 C 53.140625 104.628906 52.4375 104.804688 51.730469 104.945312 C 51.019531 105.089844 50.304688 105.195312 49.585938 105.265625 C 48.863281 105.335938 48.140625 105.371094 47.417969 105.371094 C 46.695312 105.371094 45.972656 105.335938 45.253906 105.261719 C 44.535156 105.191406 43.820312 105.085938 43.109375 104.941406 C 42.402344 104.800781 41.699219 104.625 41.007812 104.414062 C 40.316406 104.203125 39.636719 103.960938 38.96875 103.683594 C 38.300781 103.40625 37.648438 103.097656 37.011719 102.757812 C 36.371094 102.414062 35.753906 102.042969 35.152344 101.640625 C 34.550781 101.238281 33.96875 100.808594 33.410156 100.351562 C 32.851562 99.890625 32.316406 99.40625 31.804688 98.894531 C 31.292969 98.382812 30.808594 97.847656 30.347656 97.289062 C 29.890625 96.730469 29.460938 96.152344 29.058594 95.550781 C 28.65625 94.949219 28.285156 94.328125 27.941406 93.691406 C 27.601562 93.054688 27.292969 92.402344 27.015625 91.734375 C 26.738281 91.066406 26.492188 90.386719 26.285156 89.691406 C 26.074219 89 25.898438 88.300781 25.753906 87.589844 C 25.613281 86.882812 25.507812 86.167969 25.433594 85.449219 C 25.363281 84.726562 25.328125 84.007812 25.324219 83.285156 Z M 11.726562 151.261719 C 11.726562 150.089844 11.785156 148.925781 11.898438 147.761719 C 12.011719 146.597656 12.183594 145.445312 12.414062 144.296875 C 12.640625 143.152344 12.925781 142.019531 13.265625 140.898438 C 13.601562 139.78125 13.996094 138.683594 14.445312 137.601562 C 14.890625 136.523438 15.390625 135.464844 15.941406 134.4375 C 16.492188 133.40625 17.09375 132.402344 17.742188 131.429688 C 18.390625 130.460938 19.085938 129.523438 19.828125 128.617188 C 20.570312 127.714844 21.355469 126.847656 22.179688 126.023438 C 23.007812 125.195312 23.871094 124.414062 24.777344 123.671875 C 25.679688 122.929688 26.617188 122.234375 27.589844 121.585938 C 28.5625 120.933594 29.5625 120.335938 30.59375 119.785156 C 31.625 119.234375 32.679688 118.734375 33.761719 118.285156 C 34.839844 117.839844 35.9375 117.445312 37.058594 117.105469 C 38.175781 116.765625 39.308594 116.484375 40.457031 116.253906 C 41.601562 116.027344 42.757812 115.855469 43.921875 115.742188 C 45.082031 115.625 46.25 115.570312 47.417969 115.570312 C 48.585938 115.570312 49.753906 115.625 50.917969 115.742188 C 52.082031 115.855469 53.234375 116.027344 54.382812 116.253906 C 55.527344 116.484375 56.660156 116.765625 57.78125 117.105469 C 58.898438 117.445312 59.996094 117.839844 61.078125 118.285156 C 62.15625 118.734375 63.210938 119.234375 64.242188 119.785156 C 65.273438 120.335938 66.277344 120.933594 67.246094 121.585938 C 68.21875 122.234375 69.15625 122.929688 70.0625 123.671875 C 70.964844 124.414062 71.828125 125.195312 72.65625 126.023438 C 73.484375 126.847656 74.265625 127.714844 75.007812 128.617188 C 75.75 129.523438 76.445312 130.460938 77.09375 131.429688 C 77.746094 132.402344 78.34375 133.40625 78.894531 134.4375 C 79.445312 135.464844 79.945312 136.523438 80.394531 137.601562 C 80.839844 138.683594 81.234375 139.78125 81.574219 140.898438 C 81.914062 142.019531 82.195312 143.152344 82.425781 144.296875 C 82.652344 145.445312 82.824219 146.597656 82.9375 147.761719 C 83.054688 148.925781 83.109375 150.089844 83.109375 151.261719 L 83.109375 164.464844 C 80.371094 165.914062 77.554688 167.191406 74.660156 168.296875 C 71.765625 169.402344 68.8125 170.328125 65.804688 171.074219 C 62.796875 171.824219 59.757812 172.382812 56.679688 172.757812 C 53.605469 173.136719 50.515625 173.324219 47.417969 173.324219 C 44.320312 173.324219 41.234375 173.136719 38.15625 172.757812 C 35.082031 172.382812 32.039062 171.824219 29.03125 171.074219 C 26.023438 170.328125 23.074219 169.402344 20.179688 168.296875 C 17.285156 167.191406 14.464844 165.914062 11.726562 164.464844 Z M 11.726562 151.261719 " fill-opacity="1" fill-rule="nonzero"/><path fill="#ffffff" d="M 99.4375 78.511719 C 99.21875 78.777344 99.03125 79.0625 98.871094 79.367188 C 98.710938 79.671875 98.582031 79.988281 98.488281 80.316406 C 98.390625 80.648438 98.328125 80.984375 98.300781 81.324219 C 98.273438 81.667969 98.28125 82.007812 98.320312 82.351562 C 98.359375 82.691406 98.4375 83.023438 98.542969 83.351562 C 98.652344 83.675781 98.792969 83.988281 98.964844 84.285156 C 99.132812 84.582031 99.332031 84.859375 99.5625 85.117188 C 99.789062 85.375 100.039062 85.605469 100.3125 85.8125 C 100.585938 86.019531 100.878906 86.199219 101.1875 86.347656 C 101.5 86.492188 101.820312 86.609375 102.152344 86.691406 C 102.488281 86.773438 102.824219 86.824219 103.167969 86.835938 C 103.511719 86.851562 103.851562 86.832031 104.191406 86.777344 C 104.53125 86.722656 104.859375 86.636719 105.183594 86.515625 C 105.503906 86.394531 105.808594 86.242188 106.097656 86.058594 C 106.390625 85.875 106.660156 85.664062 106.90625 85.425781 C 107.15625 85.191406 107.378906 84.929688 107.574219 84.648438 C 110.199219 81.15625 113.257812 78.097656 116.75 75.46875 C 120.488281 72.75 124.53125 70.59375 128.878906 69.011719 C 133.222656 67.429688 137.703125 66.476562 142.316406 66.152344 L 140.683594 67.785156 C 140.441406 68.019531 140.222656 68.277344 140.03125 68.554688 C 139.839844 68.832031 139.675781 69.128906 139.542969 69.4375 C 139.410156 69.75 139.308594 70.070312 139.238281 70.402344 C 139.167969 70.734375 139.132812 71.070312 139.128906 71.40625 C 139.125 71.746094 139.15625 72.082031 139.21875 72.414062 C 139.285156 72.746094 139.378906 73.070312 139.507812 73.382812 C 139.636719 73.695312 139.792969 73.992188 139.980469 74.273438 C 140.167969 74.558594 140.382812 74.816406 140.621094 75.058594 C 140.859375 75.296875 141.121094 75.511719 141.402344 75.699219 C 141.683594 75.886719 141.984375 76.042969 142.296875 76.171875 C 142.609375 76.300781 142.933594 76.394531 143.265625 76.457031 C 143.597656 76.523438 143.933594 76.554688 144.269531 76.550781 C 144.609375 76.546875 144.945312 76.511719 145.277344 76.441406 C 145.605469 76.371094 145.929688 76.269531 146.238281 76.136719 C 146.550781 76.003906 146.84375 75.839844 147.125 75.648438 C 147.402344 75.457031 147.660156 75.238281 147.894531 74.992188 L 158.09375 64.796875 C 158.21875 64.632812 158.332031 64.464844 158.433594 64.285156 C 158.925781 63.734375 159.234375 63.09375 159.359375 62.363281 C 159.4375 62.15625 159.503906 61.949219 159.554688 61.734375 C 159.566406 61.644531 159.527344 61.5625 159.53125 61.472656 C 159.535156 61.113281 159.503906 60.757812 159.429688 60.40625 C 159.398438 60.097656 159.339844 59.800781 159.253906 59.503906 C 159.136719 59.226562 158.996094 58.960938 158.832031 58.710938 C 158.664062 58.382812 158.464844 58.082031 158.230469 57.800781 C 158.171875 57.738281 158.152344 57.652344 158.089844 57.589844 L 147.890625 47.394531 C 147.652344 47.164062 147.394531 46.957031 147.117188 46.777344 C 146.839844 46.597656 146.546875 46.449219 146.238281 46.324219 C 145.933594 46.203125 145.617188 46.109375 145.289062 46.050781 C 144.964844 45.988281 144.636719 45.960938 144.304688 45.960938 C 143.976562 45.964844 143.648438 46 143.324219 46.066406 C 143 46.132812 142.683594 46.230469 142.378906 46.359375 C 142.074219 46.488281 141.78125 46.644531 141.507812 46.828125 C 141.234375 47.011719 140.980469 47.222656 140.746094 47.457031 C 140.511719 47.6875 140.300781 47.945312 140.117188 48.21875 C 139.933594 48.492188 139.777344 48.785156 139.648438 49.089844 C 139.519531 49.394531 139.421875 49.710938 139.355469 50.035156 C 139.289062 50.359375 139.253906 50.683594 139.25 51.015625 C 139.25 51.347656 139.277344 51.675781 139.339844 52 C 139.398438 52.328125 139.492188 52.644531 139.613281 52.949219 C 139.738281 53.257812 139.886719 53.550781 140.066406 53.828125 C 140.246094 54.105469 140.453125 54.363281 140.683594 54.601562 L 142.046875 55.96875 C 136.382812 56.320312 130.878906 57.457031 125.535156 59.386719 C 120.195312 61.3125 115.234375 63.953125 110.652344 67.304688 C 106.378906 70.507812 102.640625 74.242188 99.4375 78.511719 Z M 99.4375 78.511719 " fill-opacity="1" fill-rule="nonzero"/><path fill="#ffffff" d="M 99.4375 156.03125 C 102.644531 160.304688 106.382812 164.042969 110.65625 167.25 C 115.238281 170.601562 120.203125 173.238281 125.546875 175.167969 C 130.890625 177.097656 136.394531 178.234375 142.0625 178.582031 L 140.691406 179.957031 C 140.449219 180.191406 140.230469 180.449219 140.035156 180.726562 C 139.84375 181.003906 139.683594 181.300781 139.546875 181.609375 C 139.414062 181.921875 139.3125 182.242188 139.242188 182.574219 C 139.171875 182.90625 139.136719 183.238281 139.132812 183.578125 C 139.132812 183.917969 139.160156 184.253906 139.226562 184.585938 C 139.289062 184.917969 139.386719 185.242188 139.515625 185.554688 C 139.640625 185.867188 139.800781 186.164062 139.988281 186.445312 C 140.175781 186.726562 140.386719 186.988281 140.628906 187.226562 C 140.867188 187.46875 141.128906 187.679688 141.410156 187.867188 C 141.691406 188.054688 141.988281 188.214844 142.300781 188.34375 C 142.617188 188.46875 142.9375 188.566406 143.269531 188.628906 C 143.601562 188.695312 143.9375 188.722656 144.277344 188.722656 C 144.617188 188.71875 144.949219 188.683594 145.28125 188.613281 C 145.613281 188.542969 145.933594 188.441406 146.246094 188.308594 C 146.554688 188.175781 146.851562 188.011719 147.128906 187.820312 C 147.410156 187.625 147.664062 187.410156 147.902344 187.164062 L 158.097656 176.96875 C 158.160156 176.90625 158.179688 176.820312 158.238281 176.757812 C 158.472656 176.476562 158.671875 176.171875 158.839844 175.847656 C 159.003906 175.597656 159.144531 175.332031 159.261719 175.054688 C 159.347656 174.757812 159.40625 174.460938 159.4375 174.152344 C 159.511719 173.800781 159.542969 173.445312 159.539062 173.085938 C 159.535156 172.996094 159.574219 172.914062 159.566406 172.824219 C 159.394531 172.277344 159.222656 171.734375 159.046875 171.1875 C 158.882812 170.863281 158.683594 170.566406 158.453125 170.289062 C 158.347656 170.101562 158.230469 169.925781 158.101562 169.757812 L 147.902344 159.558594 C 147.664062 159.332031 147.40625 159.125 147.128906 158.945312 C 146.851562 158.765625 146.558594 158.613281 146.25 158.492188 C 145.941406 158.371094 145.625 158.277344 145.300781 158.214844 C 144.976562 158.15625 144.648438 158.125 144.316406 158.128906 C 143.984375 158.132812 143.65625 158.167969 143.332031 158.234375 C 143.007812 158.300781 142.695312 158.398438 142.386719 158.527344 C 142.082031 158.652344 141.792969 158.808594 141.519531 158.996094 C 141.242188 159.179688 140.988281 159.386719 140.753906 159.621094 C 140.519531 159.855469 140.3125 160.109375 140.125 160.386719 C 139.941406 160.660156 139.785156 160.949219 139.65625 161.257812 C 139.53125 161.5625 139.433594 161.875 139.367188 162.199219 C 139.300781 162.523438 139.265625 162.851562 139.261719 163.183594 C 139.257812 163.515625 139.289062 163.84375 139.347656 164.167969 C 139.410156 164.492188 139.5 164.808594 139.625 165.117188 C 139.746094 165.425781 139.898438 165.71875 140.078125 165.996094 C 140.257812 166.273438 140.460938 166.53125 140.691406 166.769531 L 142.324219 168.402344 C 137.710938 168.078125 133.230469 167.128906 128.886719 165.542969 C 124.539062 163.960938 120.496094 161.804688 116.757812 159.085938 C 113.265625 156.457031 110.207031 153.398438 107.582031 149.90625 C 107.386719 149.625 107.164062 149.363281 106.914062 149.128906 C 106.667969 148.890625 106.398438 148.679688 106.109375 148.496094 C 105.816406 148.3125 105.511719 148.160156 105.191406 148.039062 C 104.867188 147.917969 104.539062 147.832031 104.199219 147.777344 C 103.859375 147.722656 103.519531 147.703125 103.175781 147.71875 C 102.832031 147.730469 102.496094 147.78125 102.160156 147.863281 C 101.828125 147.945312 101.507812 148.0625 101.199219 148.207031 C 100.886719 148.355469 100.59375 148.535156 100.320312 148.742188 C 100.046875 148.945312 99.796875 149.179688 99.570312 149.4375 C 99.339844 149.695312 99.140625 149.972656 98.972656 150.269531 C 98.800781 150.566406 98.660156 150.878906 98.550781 151.203125 C 98.445312 151.53125 98.371094 151.863281 98.328125 152.203125 C 98.289062 152.546875 98.28125 152.886719 98.308594 153.230469 C 98.335938 153.570312 98.398438 153.90625 98.496094 154.238281 C 98.589844 154.566406 98.71875 154.882812 98.878906 155.1875 C 99.039062 155.492188 99.226562 155.777344 99.445312 156.042969 Z M 99.4375 156.03125 " fill-opacity="1" fill-rule="nonzero"/><g clip-path="url(#62177afda0)"><g clip-path="url(#0d6e935846)"><path fill="url(#b3c105c5e3)" d="M 108.710938 96.828125 L 108.710938 130.210938 L 142.328125 130.210938 L 142.328125 96.828125 Z M 108.710938 96.828125 " fill-rule="nonzero"/></g></g><g clip-path="url(#a63ff82704)"><g clip-path="url(#b84b123192)"><path fill="url(#4bb9309591)" d="M 119.230469 107.589844 L 119.230469 140.976562 L 152.847656 140.976562 L 152.847656 107.589844 Z M 119.230469 107.589844 " fill-rule="nonzero"/></g></g></svg>